<svg width="1512" height="982" viewBox="0 0 1512 982" fill="none" xmlns="http://www.w3.org/2000/svg">
<g clip-path="url(#clip0_12_217)">
<rect width="42.5108" height="42.5108" stroke="white" stroke-opacity="0.06" stroke-width="0.850216"/>
<rect x="42.5107" width="42.5108" height="42.5108" stroke="white" stroke-opacity="0.06" stroke-width="0.850216"/>
<rect x="85.0215" width="42.5108" height="42.5108" stroke="white" stroke-opacity="0.06" stroke-width="0.850216"/>
<rect x="127.532" width="42.5108" height="42.5108" stroke="white" stroke-opacity="0.06" stroke-width="0.850216"/>
<rect x="170.043" width="42.5108" height="42.5108" stroke="white" stroke-opacity="0.06" stroke-width="0.850216"/>
<rect x="212.554" width="42.5108" height="42.5108" stroke="white" stroke-opacity="0.06" stroke-width="0.850216"/>
<rect x="255.065" width="42.5108" height="42.5108" stroke="white" stroke-opacity="0.06" stroke-width="0.850216"/>
<rect x="297.576" width="42.5108" height="42.5108" stroke="white" stroke-opacity="0.06" stroke-width="0.850216"/>
<rect x="340.086" width="42.5108" height="42.5108" stroke="white" stroke-opacity="0.06" stroke-width="0.850216"/>
<rect x="382.597" width="42.5108" height="42.5108" stroke="white" stroke-opacity="0.06" stroke-width="0.850216"/>
<rect x="425.108" width="42.5108" height="42.5108" stroke="white" stroke-opacity="0.06" stroke-width="0.850216"/>
<rect x="467.619" width="42.5108" height="42.5108" stroke="white" stroke-opacity="0.06" stroke-width="0.850216"/>
<rect x="510.13" width="42.5108" height="42.5108" stroke="white" stroke-opacity="0.06" stroke-width="0.850216"/>
<rect x="552.641" width="42.5108" height="42.5108" stroke="white" stroke-opacity="0.06" stroke-width="0.850216"/>
<rect x="595.151" width="42.5108" height="42.5108" stroke="white" stroke-opacity="0.06" stroke-width="0.850216"/>
<rect x="637.662" width="42.5108" height="42.5108" stroke="white" stroke-opacity="0.06" stroke-width="0.850216"/>
<rect x="680.173" width="42.5108" height="42.5108" stroke="white" stroke-opacity="0.06" stroke-width="0.850216"/>
<rect x="722.684" width="42.5108" height="42.5108" stroke="white" stroke-opacity="0.06" stroke-width="0.850216"/>
<rect x="765.195" width="42.5108" height="42.5108" stroke="white" stroke-opacity="0.06" stroke-width="0.850216"/>
<rect x="807.706" width="42.5108" height="42.5108" stroke="white" stroke-opacity="0.06" stroke-width="0.850216"/>
<rect x="850.216" width="42.5108" height="42.5108" stroke="white" stroke-opacity="0.06" stroke-width="0.850216"/>
<rect y="42.511" width="42.5108" height="42.5108" stroke="white" stroke-opacity="0.06" stroke-width="0.850216"/>
<rect x="42.5107" y="42.511" width="42.5108" height="42.5108" stroke="white" stroke-opacity="0.06" stroke-width="0.850216"/>
<rect x="85.0215" y="42.511" width="42.5108" height="42.5108" fill="white" fill-opacity="0.05" stroke="white" stroke-opacity="0.06" stroke-width="0.850216"/>
<rect x="127.532" y="42.511" width="42.5108" height="42.5108" stroke="white" stroke-opacity="0.06" stroke-width="0.850216"/>
<rect x="170.043" y="42.511" width="42.5108" height="42.5108" stroke="white" stroke-opacity="0.06" stroke-width="0.850216"/>
<rect x="212.554" y="42.511" width="42.5108" height="42.5108" stroke="white" stroke-opacity="0.06" stroke-width="0.850216"/>
<rect x="255.065" y="42.511" width="42.5108" height="42.5108" stroke="white" stroke-opacity="0.06" stroke-width="0.850216"/>
<rect x="297.576" y="42.511" width="42.5108" height="42.5108" stroke="white" stroke-opacity="0.06" stroke-width="0.850216"/>
<rect x="340.086" y="42.511" width="42.5108" height="42.5108" stroke="white" stroke-opacity="0.06" stroke-width="0.850216"/>
<rect x="382.597" y="42.511" width="42.5108" height="42.5108" fill="white" fill-opacity="0.05" stroke="white" stroke-opacity="0.06" stroke-width="0.850216"/>
<rect x="425.108" y="42.511" width="42.5108" height="42.5108" stroke="white" stroke-opacity="0.06" stroke-width="0.850216"/>
<rect x="467.619" y="42.511" width="42.5108" height="42.5108" stroke="white" stroke-opacity="0.06" stroke-width="0.850216"/>
<rect x="510.13" y="42.511" width="42.5108" height="42.5108" stroke="white" stroke-opacity="0.06" stroke-width="0.850216"/>
<rect x="552.641" y="42.511" width="42.5108" height="42.5108" stroke="white" stroke-opacity="0.06" stroke-width="0.850216"/>
<rect x="595.151" y="42.511" width="42.5108" height="42.5108" stroke="white" stroke-opacity="0.06" stroke-width="0.850216"/>
<rect x="637.662" y="42.511" width="42.5108" height="42.5108" stroke="white" stroke-opacity="0.06" stroke-width="0.850216"/>
<rect x="680.173" y="42.511" width="42.5108" height="42.5108" stroke="white" stroke-opacity="0.06" stroke-width="0.850216"/>
<rect x="722.684" y="42.511" width="42.5108" height="42.5108" stroke="white" stroke-opacity="0.06" stroke-width="0.850216"/>
<rect x="765.195" y="42.511" width="42.5108" height="42.5108" stroke="white" stroke-opacity="0.06" stroke-width="0.850216"/>
<rect x="807.706" y="42.511" width="42.5108" height="42.5108" stroke="white" stroke-opacity="0.06" stroke-width="0.850216"/>
<rect x="850.216" y="42.511" width="42.5108" height="42.5108" stroke="white" stroke-opacity="0.06" stroke-width="0.850216"/>
<rect y="85.022" width="42.5108" height="42.5108" stroke="white" stroke-opacity="0.06" stroke-width="0.850216"/>
<rect x="42.5107" y="85.022" width="42.5108" height="42.5108" stroke="white" stroke-opacity="0.06" stroke-width="0.850216"/>
<rect x="85.0215" y="85.022" width="42.5108" height="42.5108" stroke="white" stroke-opacity="0.06" stroke-width="0.850216"/>
<rect x="127.532" y="85.022" width="42.5108" height="42.5108" stroke="white" stroke-opacity="0.06" stroke-width="0.850216"/>
<rect x="170.043" y="85.022" width="42.5108" height="42.5108" stroke="white" stroke-opacity="0.06" stroke-width="0.850216"/>
<rect x="212.554" y="85.022" width="42.5108" height="42.5108" stroke="white" stroke-opacity="0.06" stroke-width="0.850216"/>
<rect x="255.065" y="85.022" width="42.5108" height="42.5108" stroke="white" stroke-opacity="0.06" stroke-width="0.850216"/>
<rect x="297.576" y="85.022" width="42.5108" height="42.5108" stroke="white" stroke-opacity="0.06" stroke-width="0.850216"/>
<rect x="340.086" y="85.022" width="42.5108" height="42.5108" stroke="white" stroke-opacity="0.06" stroke-width="0.850216"/>
<rect x="382.597" y="85.022" width="42.5108" height="42.5108" stroke="white" stroke-opacity="0.06" stroke-width="0.850216"/>
<rect x="425.108" y="85.022" width="42.5108" height="42.5108" stroke="white" stroke-opacity="0.06" stroke-width="0.850216"/>
<rect x="467.619" y="85.022" width="42.5108" height="42.5108" stroke="white" stroke-opacity="0.06" stroke-width="0.850216"/>
<rect x="510.13" y="85.022" width="42.5108" height="42.5108" stroke="white" stroke-opacity="0.06" stroke-width="0.850216"/>
<rect x="552.641" y="85.022" width="42.5108" height="42.5108" stroke="white" stroke-opacity="0.06" stroke-width="0.850216"/>
<rect x="595.151" y="85.022" width="42.5108" height="42.5108" stroke="white" stroke-opacity="0.06" stroke-width="0.850216"/>
<rect x="637.662" y="85.022" width="42.5108" height="42.5108" stroke="white" stroke-opacity="0.06" stroke-width="0.850216"/>
<rect x="680.173" y="85.022" width="42.5108" height="42.5108" fill="white" fill-opacity="0.05" stroke="white" stroke-opacity="0.06" stroke-width="0.850216"/>
<rect x="722.684" y="85.022" width="42.5108" height="42.5108" stroke="white" stroke-opacity="0.06" stroke-width="0.850216"/>
<rect x="765.195" y="85.022" width="42.5108" height="42.5108" stroke="white" stroke-opacity="0.06" stroke-width="0.850216"/>
<rect x="807.706" y="85.022" width="42.5108" height="42.5108" stroke="white" stroke-opacity="0.06" stroke-width="0.850216"/>
<rect x="850.216" y="85.022" width="42.5108" height="42.5108" stroke="white" stroke-opacity="0.06" stroke-width="0.850216"/>
<rect y="127.533" width="42.5108" height="42.5108" stroke="white" stroke-opacity="0.06" stroke-width="0.850216"/>
<rect x="42.5107" y="127.533" width="42.5108" height="42.5108" stroke="white" stroke-opacity="0.06" stroke-width="0.850216"/>
<rect x="85.0215" y="127.533" width="42.5108" height="42.5108" stroke="white" stroke-opacity="0.06" stroke-width="0.850216"/>
<rect x="127.532" y="127.533" width="42.5108" height="42.5108" stroke="white" stroke-opacity="0.06" stroke-width="0.850216"/>
<rect x="170.043" y="127.533" width="42.5108" height="42.5108" stroke="white" stroke-opacity="0.06" stroke-width="0.850216"/>
<rect x="212.554" y="127.533" width="42.5108" height="42.5108" stroke="white" stroke-opacity="0.06" stroke-width="0.850216"/>
<rect x="255.065" y="127.533" width="42.5108" height="42.5108" stroke="white" stroke-opacity="0.06" stroke-width="0.850216"/>
<rect x="297.576" y="127.533" width="42.5108" height="42.5108" stroke="white" stroke-opacity="0.06" stroke-width="0.850216"/>
<rect x="340.086" y="127.533" width="42.5108" height="42.5108" stroke="white" stroke-opacity="0.06" stroke-width="0.850216"/>
<rect x="382.597" y="127.533" width="42.5108" height="42.5108" stroke="white" stroke-opacity="0.06" stroke-width="0.850216"/>
<rect x="425.108" y="127.533" width="42.5108" height="42.5108" stroke="white" stroke-opacity="0.06" stroke-width="0.850216"/>
<rect x="467.619" y="127.533" width="42.5108" height="42.5108" stroke="white" stroke-opacity="0.06" stroke-width="0.850216"/>
<rect x="510.13" y="127.533" width="42.5108" height="42.5108" stroke="white" stroke-opacity="0.06" stroke-width="0.850216"/>
<rect x="552.641" y="127.533" width="42.5108" height="42.5108" stroke="white" stroke-opacity="0.06" stroke-width="0.850216"/>
<rect x="595.151" y="127.533" width="42.5108" height="42.5108" stroke="white" stroke-opacity="0.06" stroke-width="0.850216"/>
<rect x="637.662" y="127.533" width="42.5108" height="42.5108" stroke="white" stroke-opacity="0.06" stroke-width="0.850216"/>
<rect x="680.173" y="127.533" width="42.5108" height="42.5108" stroke="white" stroke-opacity="0.06" stroke-width="0.850216"/>
<rect x="722.684" y="127.533" width="42.5108" height="42.5108" stroke="white" stroke-opacity="0.06" stroke-width="0.850216"/>
<rect x="765.195" y="127.533" width="42.5108" height="42.5108" stroke="white" stroke-opacity="0.06" stroke-width="0.850216"/>
<rect x="807.706" y="127.533" width="42.5108" height="42.5108" stroke="white" stroke-opacity="0.06" stroke-width="0.850216"/>
<rect x="850.216" y="127.533" width="42.5108" height="42.5108" stroke="white" stroke-opacity="0.06" stroke-width="0.850216"/>
<rect y="170.043" width="42.5108" height="42.5108" stroke="white" stroke-opacity="0.06" stroke-width="0.850216"/>
<rect x="42.5107" y="170.043" width="42.5108" height="42.5108" stroke="white" stroke-opacity="0.06" stroke-width="0.850216"/>
<rect x="85.0215" y="170.043" width="42.5108" height="42.5108" stroke="white" stroke-opacity="0.06" stroke-width="0.850216"/>
<rect x="127.532" y="170.043" width="42.5108" height="42.5108" fill="white" fill-opacity="0.05" stroke="white" stroke-opacity="0.06" stroke-width="0.850216"/>
<rect x="170.043" y="170.043" width="42.5108" height="42.5108" stroke="white" stroke-opacity="0.06" stroke-width="0.850216"/>
<rect x="212.554" y="170.043" width="42.5108" height="42.5108" stroke="white" stroke-opacity="0.06" stroke-width="0.850216"/>
<rect x="255.065" y="170.043" width="42.5108" height="42.5108" stroke="white" stroke-opacity="0.06" stroke-width="0.850216"/>
<rect x="297.576" y="170.043" width="42.5108" height="42.5108" stroke="white" stroke-opacity="0.06" stroke-width="0.850216"/>
<rect x="340.086" y="170.043" width="42.5108" height="42.5108" stroke="white" stroke-opacity="0.06" stroke-width="0.850216"/>
<rect x="382.597" y="170.043" width="42.5108" height="42.5108" stroke="white" stroke-opacity="0.06" stroke-width="0.850216"/>
<rect x="425.108" y="170.043" width="42.5108" height="42.5108" stroke="white" stroke-opacity="0.06" stroke-width="0.850216"/>
<rect x="467.619" y="170.043" width="42.5108" height="42.5108" stroke="white" stroke-opacity="0.06" stroke-width="0.850216"/>
<rect x="510.13" y="170.043" width="42.5108" height="42.5108" fill="white" fill-opacity="0.05" stroke="white" stroke-opacity="0.06" stroke-width="0.850216"/>
<rect x="552.641" y="170.043" width="42.5108" height="42.5108" stroke="white" stroke-opacity="0.06" stroke-width="0.850216"/>
<rect x="595.151" y="170.043" width="42.5108" height="42.5108" stroke="white" stroke-opacity="0.06" stroke-width="0.850216"/>
<rect x="637.662" y="170.043" width="42.5108" height="42.5108" stroke="white" stroke-opacity="0.06" stroke-width="0.850216"/>
<rect x="680.173" y="170.043" width="42.5108" height="42.5108" stroke="white" stroke-opacity="0.06" stroke-width="0.850216"/>
<rect x="722.684" y="170.043" width="42.5108" height="42.5108" stroke="white" stroke-opacity="0.06" stroke-width="0.850216"/>
<rect x="765.195" y="170.043" width="42.5108" height="42.5108" stroke="white" stroke-opacity="0.06" stroke-width="0.850216"/>
<rect x="807.706" y="170.043" width="42.5108" height="42.5108" stroke="white" stroke-opacity="0.06" stroke-width="0.850216"/>
<rect x="850.216" y="170.043" width="42.5108" height="42.5108" stroke="white" stroke-opacity="0.06" stroke-width="0.850216"/>
<rect y="212.554" width="42.5108" height="42.5108" stroke="white" stroke-opacity="0.06" stroke-width="0.850216"/>
<rect x="42.5107" y="212.554" width="42.5108" height="42.5108" stroke="white" stroke-opacity="0.06" stroke-width="0.850216"/>
<rect x="85.0215" y="212.554" width="42.5108" height="42.5108" stroke="white" stroke-opacity="0.06" stroke-width="0.850216"/>
<rect x="127.532" y="212.554" width="42.5108" height="42.5108" stroke="white" stroke-opacity="0.06" stroke-width="0.850216"/>
<rect x="170.043" y="212.554" width="42.5108" height="42.5108" stroke="white" stroke-opacity="0.06" stroke-width="0.850216"/>
<rect x="212.554" y="212.554" width="42.5108" height="42.5108" stroke="white" stroke-opacity="0.06" stroke-width="0.850216"/>
<rect x="255.065" y="212.554" width="42.5108" height="42.5108" stroke="white" stroke-opacity="0.06" stroke-width="0.850216"/>
<rect x="297.576" y="212.554" width="42.5108" height="42.5108" stroke="white" stroke-opacity="0.06" stroke-width="0.850216"/>
<rect x="340.086" y="212.554" width="42.5108" height="42.5108" stroke="white" stroke-opacity="0.06" stroke-width="0.850216"/>
<rect x="382.597" y="212.554" width="42.5108" height="42.5108" stroke="white" stroke-opacity="0.06" stroke-width="0.850216"/>
<rect x="425.108" y="212.554" width="42.5108" height="42.5108" stroke="white" stroke-opacity="0.06" stroke-width="0.850216"/>
<rect x="467.619" y="212.554" width="42.5108" height="42.5108" stroke="white" stroke-opacity="0.06" stroke-width="0.850216"/>
<rect x="510.13" y="212.554" width="42.5108" height="42.5108" stroke="white" stroke-opacity="0.06" stroke-width="0.850216"/>
<rect x="552.641" y="212.554" width="42.5108" height="42.5108" stroke="white" stroke-opacity="0.06" stroke-width="0.850216"/>
<rect x="595.151" y="212.554" width="42.5108" height="42.5108" stroke="white" stroke-opacity="0.06" stroke-width="0.850216"/>
<rect x="637.662" y="212.554" width="42.5108" height="42.5108" stroke="white" stroke-opacity="0.06" stroke-width="0.850216"/>
<rect x="680.173" y="212.554" width="42.5108" height="42.5108" stroke="white" stroke-opacity="0.06" stroke-width="0.850216"/>
<rect x="722.684" y="212.554" width="42.5108" height="42.5108" stroke="white" stroke-opacity="0.06" stroke-width="0.850216"/>
<rect x="765.195" y="212.554" width="42.5108" height="42.5108" fill="white" fill-opacity="0.05" stroke="white" stroke-opacity="0.06" stroke-width="0.850216"/>
<rect x="807.706" y="212.554" width="42.5108" height="42.5108" stroke="white" stroke-opacity="0.06" stroke-width="0.850216"/>
<rect x="850.216" y="212.554" width="42.5108" height="42.5108" stroke="white" stroke-opacity="0.06" stroke-width="0.850216"/>
<rect y="255.065" width="42.5108" height="42.5108" stroke="white" stroke-opacity="0.06" stroke-width="0.850216"/>
<rect x="42.5107" y="255.065" width="42.5108" height="42.5108" stroke="white" stroke-opacity="0.06" stroke-width="0.850216"/>
<rect x="85.0215" y="255.065" width="42.5108" height="42.5108" stroke="white" stroke-opacity="0.06" stroke-width="0.850216"/>
<rect x="127.532" y="255.065" width="42.5108" height="42.5108" stroke="white" stroke-opacity="0.06" stroke-width="0.850216"/>
<rect x="170.043" y="255.065" width="42.5108" height="42.5108" stroke="white" stroke-opacity="0.06" stroke-width="0.850216"/>
<rect x="212.554" y="255.065" width="42.5108" height="42.5108" stroke="white" stroke-opacity="0.06" stroke-width="0.850216"/>
<rect x="255.065" y="255.065" width="42.5108" height="42.5108" stroke="white" stroke-opacity="0.06" stroke-width="0.850216"/>
<rect x="297.576" y="255.065" width="42.5108" height="42.5108" stroke="white" stroke-opacity="0.06" stroke-width="0.850216"/>
<rect x="340.086" y="255.065" width="42.5108" height="42.5108" stroke="white" stroke-opacity="0.06" stroke-width="0.850216"/>
<rect x="382.597" y="255.065" width="42.5108" height="42.5108" stroke="white" stroke-opacity="0.06" stroke-width="0.850216"/>
<rect x="425.108" y="255.065" width="42.5108" height="42.5108" stroke="white" stroke-opacity="0.06" stroke-width="0.850216"/>
<rect x="467.619" y="255.065" width="42.5108" height="42.5108" stroke="white" stroke-opacity="0.06" stroke-width="0.850216"/>
<rect x="510.13" y="255.065" width="42.5108" height="42.5108" stroke="white" stroke-opacity="0.06" stroke-width="0.850216"/>
<rect x="552.641" y="255.065" width="42.5108" height="42.5108" stroke="white" stroke-opacity="0.06" stroke-width="0.850216"/>
<rect x="595.151" y="255.065" width="42.5108" height="42.5108" stroke="white" stroke-opacity="0.06" stroke-width="0.850216"/>
<rect x="637.662" y="255.065" width="42.5108" height="42.5108" stroke="white" stroke-opacity="0.06" stroke-width="0.850216"/>
<rect x="680.173" y="255.065" width="42.5108" height="42.5108" stroke="white" stroke-opacity="0.06" stroke-width="0.850216"/>
<rect x="722.684" y="255.065" width="42.5108" height="42.5108" stroke="white" stroke-opacity="0.06" stroke-width="0.850216"/>
<rect x="765.195" y="255.065" width="42.5108" height="42.5108" stroke="white" stroke-opacity="0.06" stroke-width="0.850216"/>
<rect x="807.706" y="255.065" width="42.5108" height="42.5108" stroke="white" stroke-opacity="0.06" stroke-width="0.850216"/>
<rect x="850.216" y="255.065" width="42.5108" height="42.5108" stroke="white" stroke-opacity="0.06" stroke-width="0.850216"/>
<rect y="297.575" width="42.5108" height="42.5108" stroke="white" stroke-opacity="0.06" stroke-width="0.850216"/>
<rect x="42.5107" y="297.575" width="42.5108" height="42.5108" stroke="white" stroke-opacity="0.06" stroke-width="0.850216"/>
<rect x="85.0215" y="297.575" width="42.5108" height="42.5108" stroke="white" stroke-opacity="0.06" stroke-width="0.850216"/>
<rect x="127.532" y="297.575" width="42.5108" height="42.5108" stroke="white" stroke-opacity="0.06" stroke-width="0.850216"/>
<rect x="170.043" y="297.575" width="42.5108" height="42.5108" stroke="white" stroke-opacity="0.06" stroke-width="0.850216"/>
<rect x="212.554" y="297.575" width="42.5108" height="42.5108" stroke="white" stroke-opacity="0.06" stroke-width="0.850216"/>
<rect x="255.065" y="297.575" width="42.5108" height="42.5108" stroke="white" stroke-opacity="0.06" stroke-width="0.850216"/>
<rect x="297.576" y="297.575" width="42.5108" height="42.5108" stroke="white" stroke-opacity="0.06" stroke-width="0.850216"/>
<rect x="340.086" y="297.575" width="42.5108" height="42.5108" fill="white" fill-opacity="0.05" stroke="white" stroke-opacity="0.06" stroke-width="0.850216"/>
<rect x="382.597" y="297.575" width="42.5108" height="42.5108" stroke="white" stroke-opacity="0.06" stroke-width="0.850216"/>
<rect x="425.108" y="297.575" width="42.5108" height="42.5108" stroke="white" stroke-opacity="0.06" stroke-width="0.850216"/>
<rect x="467.619" y="297.575" width="42.5108" height="42.5108" stroke="white" stroke-opacity="0.06" stroke-width="0.850216"/>
<rect x="510.13" y="297.575" width="42.5108" height="42.5108" stroke="white" stroke-opacity="0.06" stroke-width="0.850216"/>
<rect x="552.641" y="297.575" width="42.5108" height="42.5108" stroke="white" stroke-opacity="0.06" stroke-width="0.850216"/>
<rect x="595.151" y="297.575" width="42.5108" height="42.5108" stroke="white" stroke-opacity="0.06" stroke-width="0.850216"/>
<rect x="637.662" y="297.575" width="42.5108" height="42.5108" stroke="white" stroke-opacity="0.06" stroke-width="0.850216"/>
<rect x="680.173" y="297.575" width="42.5108" height="42.5108" stroke="white" stroke-opacity="0.06" stroke-width="0.850216"/>
<rect x="722.684" y="297.575" width="42.5108" height="42.5108" stroke="white" stroke-opacity="0.06" stroke-width="0.850216"/>
<rect x="765.195" y="297.575" width="42.5108" height="42.5108" stroke="white" stroke-opacity="0.06" stroke-width="0.850216"/>
<rect x="807.706" y="297.575" width="42.5108" height="42.5108" stroke="white" stroke-opacity="0.06" stroke-width="0.850216"/>
<rect x="850.216" y="297.575" width="42.5108" height="42.5108" stroke="white" stroke-opacity="0.06" stroke-width="0.850216"/>
<rect y="340.086" width="42.5108" height="42.5108" stroke="white" stroke-opacity="0.06" stroke-width="0.850216"/>
<rect x="42.5107" y="340.086" width="42.5108" height="42.5108" stroke="white" stroke-opacity="0.06" stroke-width="0.850216"/>
<rect x="85.0215" y="340.086" width="42.5108" height="42.5108" stroke="white" stroke-opacity="0.06" stroke-width="0.850216"/>
<rect x="127.532" y="340.086" width="42.5108" height="42.5108" stroke="white" stroke-opacity="0.06" stroke-width="0.850216"/>
<rect x="170.043" y="340.086" width="42.5108" height="42.5108" fill="white" fill-opacity="0.05" stroke="white" stroke-opacity="0.06" stroke-width="0.850216"/>
<rect x="212.554" y="340.086" width="42.5108" height="42.5108" stroke="white" stroke-opacity="0.06" stroke-width="0.850216"/>
<rect x="255.065" y="340.086" width="42.5108" height="42.5108" stroke="white" stroke-opacity="0.06" stroke-width="0.850216"/>
<rect x="297.576" y="340.086" width="42.5108" height="42.5108" stroke="white" stroke-opacity="0.06" stroke-width="0.850216"/>
<rect x="340.086" y="340.086" width="42.5108" height="42.5108" stroke="white" stroke-opacity="0.06" stroke-width="0.850216"/>
<rect x="382.598" y="340.086" width="42.5108" height="42.5108" stroke="white" stroke-opacity="0.06" stroke-width="0.850216"/>
<rect x="425.108" y="340.086" width="42.5108" height="42.5108" stroke="white" stroke-opacity="0.06" stroke-width="0.850216"/>
<rect x="467.619" y="340.086" width="42.5108" height="42.5108" stroke="white" stroke-opacity="0.06" stroke-width="0.850216"/>
<rect x="510.13" y="340.086" width="42.5108" height="42.5108" stroke="white" stroke-opacity="0.06" stroke-width="0.850216"/>
<rect x="552.641" y="340.086" width="42.5108" height="42.5108" stroke="white" stroke-opacity="0.06" stroke-width="0.850216"/>
<rect x="595.151" y="340.086" width="42.5108" height="42.5108" stroke="white" stroke-opacity="0.06" stroke-width="0.850216"/>
<rect x="637.663" y="340.086" width="42.5108" height="42.5108" stroke="white" stroke-opacity="0.06" stroke-width="0.850216"/>
<rect x="680.173" y="340.086" width="42.5108" height="42.5108" stroke="white" stroke-opacity="0.06" stroke-width="0.850216"/>
<rect x="722.684" y="340.086" width="42.5108" height="42.5108" stroke="white" stroke-opacity="0.06" stroke-width="0.850216"/>
<rect x="765.195" y="340.086" width="42.5108" height="42.5108" stroke="white" stroke-opacity="0.06" stroke-width="0.850216"/>
<rect x="807.706" y="340.086" width="42.5108" height="42.5108" stroke="white" stroke-opacity="0.06" stroke-width="0.850216"/>
<rect x="850.216" y="340.086" width="42.5108" height="42.5108" stroke="white" stroke-opacity="0.06" stroke-width="0.850216"/>
<rect y="382.597" width="42.5108" height="42.5108" stroke="white" stroke-opacity="0.06" stroke-width="0.850216"/>
<rect x="42.5107" y="382.597" width="42.5108" height="42.5108" stroke="white" stroke-opacity="0.06" stroke-width="0.850216"/>
<rect x="85.0215" y="382.597" width="42.5108" height="42.5108" stroke="white" stroke-opacity="0.06" stroke-width="0.850216"/>
<rect x="127.532" y="382.597" width="42.5108" height="42.5108" stroke="white" stroke-opacity="0.06" stroke-width="0.850216"/>
<rect x="170.043" y="382.597" width="42.5108" height="42.5108" stroke="white" stroke-opacity="0.06" stroke-width="0.850216"/>
<rect x="212.554" y="382.597" width="42.5108" height="42.5108" stroke="white" stroke-opacity="0.06" stroke-width="0.850216"/>
<rect x="255.065" y="382.597" width="42.5108" height="42.5108" stroke="white" stroke-opacity="0.06" stroke-width="0.850216"/>
<rect x="297.576" y="382.597" width="42.5108" height="42.5108" stroke="white" stroke-opacity="0.06" stroke-width="0.850216"/>
<rect x="340.086" y="382.597" width="42.5108" height="42.5108" stroke="white" stroke-opacity="0.06" stroke-width="0.850216"/>
<rect x="382.598" y="382.597" width="42.5108" height="42.5108" stroke="white" stroke-opacity="0.06" stroke-width="0.850216"/>
<rect x="425.108" y="382.597" width="42.5108" height="42.5108" stroke="white" stroke-opacity="0.06" stroke-width="0.850216"/>
<rect x="467.619" y="382.597" width="42.5108" height="42.5108" stroke="white" stroke-opacity="0.06" stroke-width="0.850216"/>
<rect x="510.13" y="382.597" width="42.5108" height="42.5108" stroke="white" stroke-opacity="0.06" stroke-width="0.850216"/>
<rect x="552.641" y="382.597" width="42.5108" height="42.5108" stroke="white" stroke-opacity="0.06" stroke-width="0.850216"/>
<rect x="595.151" y="382.597" width="42.5108" height="42.5108" stroke="white" stroke-opacity="0.06" stroke-width="0.850216"/>
<rect x="637.663" y="382.597" width="42.5108" height="42.5108" stroke="white" stroke-opacity="0.06" stroke-width="0.850216"/>
<rect x="680.173" y="382.597" width="42.5108" height="42.5108" stroke="white" stroke-opacity="0.06" stroke-width="0.850216"/>
<rect x="722.684" y="382.597" width="42.5108" height="42.5108" stroke="white" stroke-opacity="0.06" stroke-width="0.850216"/>
<rect x="765.195" y="382.597" width="42.5108" height="42.5108" stroke="white" stroke-opacity="0.06" stroke-width="0.850216"/>
<rect x="807.706" y="382.597" width="42.5108" height="42.5108" stroke="white" stroke-opacity="0.06" stroke-width="0.850216"/>
<rect x="850.216" y="382.597" width="42.5108" height="42.5108" stroke="white" stroke-opacity="0.06" stroke-width="0.850216"/>
<rect y="425.108" width="42.5108" height="42.5108" stroke="white" stroke-opacity="0.06" stroke-width="0.850216"/>
<rect x="42.5107" y="425.108" width="42.5108" height="42.5108" stroke="white" stroke-opacity="0.06" stroke-width="0.850216"/>
<rect x="85.0215" y="425.108" width="42.5108" height="42.5108" stroke="white" stroke-opacity="0.06" stroke-width="0.850216"/>
<rect x="127.532" y="425.108" width="42.5108" height="42.5108" stroke="white" stroke-opacity="0.06" stroke-width="0.850216"/>
<rect x="170.043" y="425.108" width="42.5108" height="42.5108" stroke="white" stroke-opacity="0.06" stroke-width="0.850216"/>
<rect x="212.554" y="425.108" width="42.5108" height="42.5108" stroke="white" stroke-opacity="0.06" stroke-width="0.850216"/>
<rect x="255.065" y="425.108" width="42.5108" height="42.5108" stroke="white" stroke-opacity="0.06" stroke-width="0.850216"/>
<rect x="297.576" y="425.108" width="42.5108" height="42.5108" stroke="white" stroke-opacity="0.06" stroke-width="0.850216"/>
<rect x="340.086" y="425.108" width="42.5108" height="42.5108" stroke="white" stroke-opacity="0.06" stroke-width="0.850216"/>
<rect x="382.597" y="425.108" width="42.5108" height="42.5108" stroke="white" stroke-opacity="0.06" stroke-width="0.850216"/>
<rect x="425.108" y="425.108" width="42.5108" height="42.5108" stroke="white" stroke-opacity="0.06" stroke-width="0.850216"/>
<rect x="467.619" y="425.108" width="42.5108" height="42.5108" stroke="white" stroke-opacity="0.06" stroke-width="0.850216"/>
<rect x="510.13" y="425.108" width="42.5108" height="42.5108" stroke="white" stroke-opacity="0.06" stroke-width="0.850216"/>
<rect x="552.641" y="425.108" width="42.5108" height="42.5108" stroke="white" stroke-opacity="0.06" stroke-width="0.850216"/>
<rect x="595.151" y="425.108" width="42.5108" height="42.5108" stroke="white" stroke-opacity="0.06" stroke-width="0.850216"/>
<rect x="637.662" y="425.108" width="42.5108" height="42.5108" stroke="white" stroke-opacity="0.06" stroke-width="0.850216"/>
<rect x="680.173" y="425.108" width="42.5108" height="42.5108" stroke="white" stroke-opacity="0.06" stroke-width="0.850216"/>
<rect x="722.684" y="425.108" width="42.5108" height="42.5108" stroke="white" stroke-opacity="0.06" stroke-width="0.850216"/>
<rect x="765.195" y="425.108" width="42.5108" height="42.5108" stroke="white" stroke-opacity="0.06" stroke-width="0.850216"/>
<rect x="807.706" y="425.108" width="42.5108" height="42.5108" stroke="white" stroke-opacity="0.06" stroke-width="0.850216"/>
<rect x="850.216" y="425.108" width="42.5108" height="42.5108" stroke="white" stroke-opacity="0.06" stroke-width="0.850216"/>
<rect y="467.619" width="42.5108" height="42.5108" stroke="white" stroke-opacity="0.06" stroke-width="0.850216"/>
<rect x="42.5107" y="467.619" width="42.5108" height="42.5108" stroke="white" stroke-opacity="0.06" stroke-width="0.850216"/>
<rect x="85.0215" y="467.619" width="42.5108" height="42.5108" stroke="white" stroke-opacity="0.06" stroke-width="0.850216"/>
<rect x="127.532" y="467.619" width="42.5108" height="42.5108" stroke="white" stroke-opacity="0.06" stroke-width="0.850216"/>
<rect x="170.043" y="467.619" width="42.5108" height="42.5108" stroke="white" stroke-opacity="0.06" stroke-width="0.850216"/>
<rect x="212.554" y="467.619" width="42.5108" height="42.5108" stroke="white" stroke-opacity="0.06" stroke-width="0.850216"/>
<rect x="255.065" y="467.619" width="42.5108" height="42.5108" stroke="white" stroke-opacity="0.06" stroke-width="0.850216"/>
<rect x="297.576" y="467.619" width="42.5108" height="42.5108" stroke="white" stroke-opacity="0.06" stroke-width="0.850216"/>
<rect x="340.086" y="467.619" width="42.5108" height="42.5108" stroke="white" stroke-opacity="0.06" stroke-width="0.850216"/>
<rect x="382.598" y="467.619" width="42.5108" height="42.5108" stroke="white" stroke-opacity="0.06" stroke-width="0.850216"/>
<rect x="425.108" y="467.619" width="42.5108" height="42.5108" stroke="white" stroke-opacity="0.06" stroke-width="0.850216"/>
<rect x="467.619" y="467.619" width="42.5108" height="42.5108" stroke="white" stroke-opacity="0.06" stroke-width="0.850216"/>
<rect x="510.13" y="467.619" width="42.5108" height="42.5108" stroke="white" stroke-opacity="0.06" stroke-width="0.850216"/>
<rect x="552.641" y="467.619" width="42.5108" height="42.5108" stroke="white" stroke-opacity="0.06" stroke-width="0.850216"/>
<rect x="595.151" y="467.619" width="42.5108" height="42.5108" stroke="white" stroke-opacity="0.06" stroke-width="0.850216"/>
<rect x="637.662" y="467.619" width="42.5108" height="42.5108" stroke="white" stroke-opacity="0.06" stroke-width="0.850216"/>
<rect x="680.173" y="467.619" width="42.5108" height="42.5108" stroke="white" stroke-opacity="0.06" stroke-width="0.850216"/>
<rect x="722.684" y="467.619" width="42.5108" height="42.5108" stroke="white" stroke-opacity="0.06" stroke-width="0.850216"/>
<rect x="765.195" y="467.619" width="42.5108" height="42.5108" stroke="white" stroke-opacity="0.06" stroke-width="0.850216"/>
<rect x="807.706" y="467.619" width="42.5108" height="42.5108" stroke="white" stroke-opacity="0.06" stroke-width="0.850216"/>
<rect x="850.216" y="467.619" width="42.5108" height="42.5108" stroke="white" stroke-opacity="0.06" stroke-width="0.850216"/>
<rect y="510.13" width="42.5108" height="42.5108" stroke="white" stroke-opacity="0.06" stroke-width="0.850216"/>
<rect x="42.5107" y="510.13" width="42.5108" height="42.5108" stroke="white" stroke-opacity="0.06" stroke-width="0.850216"/>
<rect x="85.0215" y="510.13" width="42.5108" height="42.5108" stroke="white" stroke-opacity="0.06" stroke-width="0.850216"/>
<rect x="127.532" y="510.13" width="42.5108" height="42.5108" stroke="white" stroke-opacity="0.06" stroke-width="0.850216"/>
<rect x="170.043" y="510.13" width="42.5108" height="42.5108" stroke="white" stroke-opacity="0.06" stroke-width="0.850216"/>
<rect x="212.554" y="510.13" width="42.5108" height="42.5108" stroke="white" stroke-opacity="0.06" stroke-width="0.850216"/>
<rect x="255.065" y="510.13" width="42.5108" height="42.5108" stroke="white" stroke-opacity="0.06" stroke-width="0.850216"/>
<rect x="297.576" y="510.13" width="42.5108" height="42.5108" stroke="white" stroke-opacity="0.06" stroke-width="0.850216"/>
<rect x="340.086" y="510.13" width="42.5108" height="42.5108" stroke="white" stroke-opacity="0.06" stroke-width="0.850216"/>
<rect x="382.597" y="510.13" width="42.5108" height="42.5108" stroke="white" stroke-opacity="0.06" stroke-width="0.850216"/>
<rect x="425.108" y="510.13" width="42.5108" height="42.5108" stroke="white" stroke-opacity="0.06" stroke-width="0.850216"/>
<rect x="467.619" y="510.13" width="42.5108" height="42.5108" stroke="white" stroke-opacity="0.06" stroke-width="0.850216"/>
<rect x="510.13" y="510.13" width="42.5108" height="42.5108" stroke="white" stroke-opacity="0.06" stroke-width="0.850216"/>
<rect x="552.641" y="510.13" width="42.5108" height="42.5108" stroke="white" stroke-opacity="0.06" stroke-width="0.850216"/>
<rect x="595.151" y="510.13" width="42.5108" height="42.5108" stroke="white" stroke-opacity="0.06" stroke-width="0.850216"/>
<rect x="637.662" y="510.13" width="42.5108" height="42.5108" stroke="white" stroke-opacity="0.06" stroke-width="0.850216"/>
<rect x="680.173" y="510.13" width="42.5108" height="42.5108" stroke="white" stroke-opacity="0.06" stroke-width="0.850216"/>
<rect x="722.684" y="510.13" width="42.5108" height="42.5108" stroke="white" stroke-opacity="0.06" stroke-width="0.850216"/>
<rect x="765.195" y="510.13" width="42.5108" height="42.5108" stroke="white" stroke-opacity="0.06" stroke-width="0.850216"/>
<rect x="807.706" y="510.13" width="42.5108" height="42.5108" stroke="white" stroke-opacity="0.06" stroke-width="0.850216"/>
<rect x="850.216" y="510.13" width="42.5108" height="42.5108" stroke="white" stroke-opacity="0.06" stroke-width="0.850216"/>
<g filter="url(#filter0_f_12_217)">
<rect x="237.528" y="-1030.34" width="1078.07" height="1459.4" fill="url(#paint0_radial_12_217)"/>
</g>
<rect x="-282.665" y="-338.366" width="2077.33" height="1324.28" fill="url(#paint1_radial_12_217)" stroke="#191919" stroke-width="0.850216"/>
</g>
<defs>
<filter id="filter0_f_12_217" x="-17.5371" y="-1285.41" width="1588.2" height="1969.53" filterUnits="userSpaceOnUse" color-interpolation-filters="sRGB">
<feFlood flood-opacity="0" result="BackgroundImageFix"/>
<feBlend mode="normal" in="SourceGraphic" in2="BackgroundImageFix" result="shape"/>
<feGaussianBlur stdDeviation="127.532" result="effect1_foregroundBlur_12_217"/>
</filter>
<radialGradient id="paint0_radial_12_217" cx="0" cy="0" r="1" gradientUnits="userSpaceOnUse" gradientTransform="translate(776.565 -300.643) rotate(90) scale(729.702 539.037)">
<stop offset="0.015625" stop-color="#4D76F4" stop-opacity="0.69"/>
<stop offset="0.223958" stop-color="#4D76F4" stop-opacity="0.34"/>
<stop offset="0.911458" stop-color="#4D76F4" stop-opacity="0"/>
</radialGradient>
<radialGradient id="paint1_radial_12_217" cx="0" cy="0" r="1" gradientUnits="userSpaceOnUse" gradientTransform="translate(756 323.776) rotate(90) scale(661.717 1038.24)">
<stop stop-color="#191919" stop-opacity="0"/>
<stop offset="0.833333" stop-color="#191919"/>
</radialGradient>
<clipPath id="clip0_12_217">
<rect width="1512" height="982" fill="white"/>
</clipPath>
</defs>
</svg>
